<?xml version="1.0" standalone="no"?>
<!DOCTYPE svg PUBLIC "-//W3C//DTD SVG 20010904//EN"
 "http://www.w3.org/TR/2001/REC-SVG-20010904/DTD/svg10.dtd">
<svg version="1.0" xmlns="http://www.w3.org/2000/svg"
 width="890.000000pt" height="890.000000pt" viewBox="0 0 890.000000 890.000000"
 preserveAspectRatio="xMidYMid meet">
<metadata>
Created by potrace 1.11, written by Peter Selinger 2001-2013
</metadata>
<g transform="translate(0.000000,890.000000) scale(0.100000,-0.100000)"
fill="#000000" stroke="none">
<path d="M3865 8461 c-64 -30 -179 -116 -294 -220 -39 -34 -71 -61 -71 -59 0
2 16 51 35 108 19 57 33 105 31 107 -9 9 -236 -112 -341 -181 -320 -210 -595
-518 -764 -854 -48 -95 -48 -98 -2 -122 70 -35 71 -41 72 -382 0 -225 4 -319
15 -366 20 -90 18 -136 -10 -190 -36 -71 -82 -123 -171 -195 -116 -93 -111
-80 -86 -194 55 -255 177 -543 321 -756 39 -60 74 -107 75 -105 2 2 -13 79
-34 171 l-38 168 117 157 117 157 109 52 c61 29 144 59 189 69 44 9 154 35
245 56 l164 39 116 -79 c105 -71 127 -82 255 -121 l140 -44 133 6 133 6 202
-150 202 -151 66 -116 66 -117 277 -9 c196 -6 276 -12 273 -20 -2 -6 -28 -83
-56 -171 l-52 -160 -130 -104 c-77 -62 -131 -112 -133 -125 -22 -116 -46 -269
-46 -291 0 -20 4 -25 18 -21 9 3 37 10 61 16 56 15 254 91 310 119 22 12 41
19 41 17 0 -2 -30 -26 -67 -52 -233 -167 -440 -389 -597 -643 -54 -88 -136
-244 -136 -258 0 -5 19 -16 41 -27 70 -32 68 -26 72 -387 3 -265 7 -336 21
-388 34 -125 -19 -222 -200 -367 -77 -62 -93 -80 -89 -97 3 -12 12 -58 21
-102 26 -132 100 -341 173 -490 67 -136 207 -362 218 -351 3 3 -2 36 -10 73
-9 37 -26 112 -38 165 l-23 97 118 156 117 157 102 48 c101 48 145 61 382 115
66 15 143 33 172 40 l52 13 108 -76 c96 -67 123 -81 243 -120 l135 -44 148 2
148 1 202 -151 202 -151 65 -120 65 -119 273 0 c149 0 272 -3 272 -7 0 -5 -24
-82 -52 -172 l-53 -164 -127 -103 c-69 -57 -129 -108 -132 -113 -9 -14 -57
-323 -51 -329 8 -8 120 25 245 74 327 128 629 342 856 607 273 319 432 656
510 1082 22 117 31 489 15 611 -16 123 -52 304 -61 304 -4 0 -10 -96 -13 -213
-6 -216 -15 -273 -48 -303 -26 -24 -52 -10 -111 59 -124 144 -199 179 -251
117 -34 -40 -53 -101 -77 -250 -28 -166 -32 -178 -91 -238 -67 -66 -125 -94
-214 -100 -150 -9 -315 66 -461 212 -86 87 -122 144 -140 223 -29 127 -35 143
-60 159 -33 22 -79 15 -191 -30 -50 -20 -103 -38 -118 -39 -25 -2 -28 2 -40
46 -14 56 -46 93 -87 102 -39 9 -53 -5 -79 -76 -27 -75 -40 -85 -79 -69 -49
20 -88 69 -116 144 -16 40 -41 85 -60 103 -28 29 -39 33 -85 33 -29 0 -112
-12 -186 -26 -143 -28 -183 -26 -183 6 0 11 23 60 51 110 90 158 107 251 68
375 -49 159 -19 162 301 22 190 -83 247 -88 314 -29 85 76 86 292 0 349 -37
24 -59 8 -119 -88 -50 -78 -78 -109 -99 -109 -11 0 -6 76 9 133 32 125 106
226 198 272 86 42 165 31 240 -34 78 -69 141 -60 233 32 84 87 126 185 132
315 5 113 -11 164 -69 217 -51 46 -62 44 -279 -45 -198 -82 -257 -100 -324
-100 -61 0 -165 -35 -238 -80 -29 -18 -110 -74 -179 -126 -125 -92 -206 -139
-284 -165 -57 -19 -189 -16 -252 5 -60 20 -65 34 -34 102 23 50 68 86 201 159
151 83 203 124 234 186 28 56 35 134 16 170 -14 25 -71 25 -124 -1 -55 -26
-178 -120 -276 -209 -44 -40 -80 -68 -80 -62 0 6 14 50 30 98 38 110 39 118 3
99 -45 -23 -109 -48 -98 -38 6 5 53 41 106 80 389 289 687 732 809 1206 50
194 65 318 65 551 0 218 -10 320 -48 480 l-21 90 -8 -195 c-9 -251 -30 -350
-74 -350 -9 0 -62 47 -118 104 -81 84 -108 106 -138 111 -53 10 -70 4 -95 -34
-30 -44 -39 -77 -68 -250 -27 -160 -42 -193 -117 -254 -108 -88 -252 -99 -406
-31 -122 54 -274 184 -343 293 -16 24 -35 77 -44 120 -9 42 -21 89 -27 104
-23 60 -83 62 -218 6 -58 -24 -109 -39 -126 -37 -26 3 -30 8 -35 47 -8 58 -55
104 -102 99 -29 -3 -34 -9 -58 -67 -28 -73 -44 -87 -84 -77 -42 11 -80 58
-115 144 -17 42 -44 89 -60 104 -44 41 -83 43 -224 13 -73 -15 -146 -25 -178
-23 -49 3 -53 5 -51 26 2 12 23 57 47 100 96 167 113 263 68 394 -30 85 -24
108 27 108 39 0 81 -15 276 -100 186 -81 242 -87 305 -34 52 44 74 98 74 184
1 65 -3 82 -27 122 -32 55 -67 70 -97 43 -10 -9 -37 -48 -60 -85 -22 -38 -52
-78 -68 -90 l-27 -22 -3 39 c-5 51 15 137 45 198 61 121 155 195 250 195 65 0
94 -11 156 -60 40 -33 58 -40 92 -40 171 0 336 353 251 535 -13 28 -38 63 -56
79 -45 38 -72 32 -280 -53 -201 -84 -213 -87 -321 -100 -139 -16 -190 -41
-389 -187 -159 -116 -210 -147 -287 -173 -76 -26 -196 -28 -271 -6 -48 15 -52
18 -52 47 0 70 73 145 210 213 99 49 189 113 219 155 52 72 64 176 25 214 -22
22 -40 20 -109 -13z"/>
<path d="M2780 4920 c0 -17 233 -230 341 -311 117 -88 201 -140 324 -202 88
-44 197 -88 203 -83 6 7 -175 376 -185 376 -4 1 -69 9 -143 19 l-135 18 -203
96 c-111 52 -202 92 -202 87z"/>
<path d="M1665 4646 c-61 -28 -184 -120 -288 -216 -44 -39 -81 -70 -83 -67 -2
2 12 50 31 107 19 57 33 105 31 108 -9 9 -236 -113 -341 -183 -327 -218 -581
-505 -755 -853 -22 -44 -40 -82 -40 -85 0 -3 18 -16 41 -29 69 -39 69 -41 70
-380 0 -224 4 -320 15 -366 20 -91 18 -141 -11 -198 -36 -72 -76 -116 -181
-200 -52 -41 -94 -78 -94 -83 0 -5 9 -51 19 -102 41 -196 130 -434 226 -600
53 -93 155 -249 162 -249 3 0 2 12 -2 28 -17 68 -65 285 -65 296 0 7 52 82
115 167 l116 154 107 51 c74 34 144 59 227 77 66 15 156 36 200 47 153 36 176
41 188 33 7 -3 55 -37 108 -74 84 -58 114 -72 239 -113 l142 -46 137 6 137 7
206 -154 206 -154 67 -123 67 -122 274 0 c151 0 274 -2 274 -4 0 -3 -20 -66
-44 -140 -24 -75 -47 -149 -51 -166 -5 -24 -36 -54 -140 -138 -130 -105 -134
-108 -143 -157 -24 -123 -49 -280 -46 -284 10 -11 278 89 409 154 235 115 389
225 578 413 186 184 306 351 422 587 156 316 225 616 225 968 0 169 -12 293
-43 442 l-22 110 -7 -188 c-8 -250 -29 -337 -80 -337 -15 0 -54 33 -118 99
-183 189 -240 157 -294 -168 -29 -166 -35 -179 -109 -248 -56 -52 -87 -68
-160 -83 -152 -31 -358 59 -516 225 -88 93 -118 145 -137 236 -20 102 -31 126
-64 138 -36 12 -81 2 -190 -43 -47 -20 -97 -36 -112 -36 -24 0 -27 4 -34 45
-8 54 -33 89 -74 103 -40 14 -64 -7 -87 -77 -20 -61 -38 -77 -77 -67 -45 11
-85 58 -120 141 -65 151 -92 163 -291 122 -71 -15 -149 -27 -171 -27 -72 0
-72 14 -3 146 96 183 105 237 64 374 -14 46 -25 87 -25 92 0 4 10 14 23 22 31
21 84 6 273 -77 244 -107 274 -110 344 -39 51 50 70 96 70 167 0 93 -49 179
-99 173 -20 -2 -36 -21 -78 -88 -51 -84 -75 -110 -100 -110 -33 0 0 177 50
262 33 56 100 124 147 148 87 44 156 35 246 -35 66 -51 101 -57 163 -26 106
55 201 240 201 394 0 80 -16 129 -58 178 -34 40 -37 41 -82 36 -26 -3 -87 -22
-136 -42 -258 -107 -287 -116 -372 -126 -150 -16 -227 -52 -417 -194 -223
-165 -306 -201 -449 -192 -113 6 -160 24 -164 61 -9 73 60 141 228 231 142 75
221 147 238 217 16 63 15 99 -4 126 -19 28 -46 28 -109 -2z"/>
<path d="M690 997 c125 -124 269 -236 413 -322 97 -57 328 -168 335 -160 9 9
-172 365 -187 370 -9 2 -59 9 -111 15 -145 16 -154 19 -289 83 -69 32 -160 75
-201 93 l-75 34 115 -113z"/>
<path d="M4990 1101 c0 -15 206 -207 300 -280 123 -95 250 -172 395 -242 142
-67 165 -75 164 -57 0 7 -40 92 -87 188 -99 200 -71 178 -262 201 -99 12 -115
17 -285 97 -211 98 -225 104 -225 93z"/>
</g>
</svg>
