<?xml version="1.0" encoding="UTF-8" standalone="no"?>
<!DOCTYPE svg PUBLIC "-//W3C//DTD SVG 1.1//EN" "http://www.w3.org/Graphics/SVG/1.1/DTD/svg11.dtd">
<svg version="1.1" xmlns="http://www.w3.org/2000/svg" xmlns:xlink="http://www.w3.org/1999/xlink" preserveAspectRatio="xMidYMid meet" viewBox="94.53191489361741 92.2569038884817 448.53900709219823 418.53900709219835" width="444.54" height="414.54"><defs><path d="M206.67 285.53C145.29 285.53 95.53 335.28 95.53 396.66C95.53 458.04 145.29 507.8 206.67 507.8C268.04 507.8 317.8 458.04 317.8 396.66C317.8 335.28 268.04 285.53 206.67 285.53Z" id="a3RZtbHaMC"></path><path d="M163.16 294.37C162.55 298.01 159.51 304.22 159.6 306.2C160.03 306.29 187.86 277.84 184.41 297.04C182.18 309.4 159.43 309.33 160.41 321.77C184.31 331.14 192.64 303.98 212.94 304.09C219.72 304.13 237.06 293.42 240.36 295.61C253.76 304.43 237.3 335.72 227.05 325.3C217.19 315.45 203.13 328.76 203.76 344.13C208.89 344.36 211.07 329.58 215.68 334.51C220.75 339.94 218.92 350.87 211.9 353.38C204.83 355.91 177.12 334.64 183.93 350.76C191.41 368.65 161.49 382.47 191.7 375.26C205.94 371.85 201.21 382.69 207.92 387.85C215.93 394 212.38 379.37 218.22 381.6C226.71 384.88 216.76 393.34 230.05 387.2C245.64 380.09 239.78 391.18 244.56 398.43C253.51 411.96 275.51 424.95 287.04 407.07C289.76 402.85 288.02 369.48 305.13 391.86C316 406.08 312.27 375.07 313.74 366.92C300.74 319.99 257.74 285.53 206.67 285.53C191.22 285.53 176.52 288.68 163.16 294.37Z" id="a8ueINeiB"></path><path d="M201.19 431.43L187.45 431.98L173.2 427.49L162.04 419.8L136.74 425.65L126.3 430.7L114.69 446.34C117.16 457.34 118.53 463.45 118.8 464.67C119.97 466.19 121.19 467.67 122.44 469.12C123.87 469.79 131.03 473.13 143.93 479.15L158.43 481.11L167.06 498.82C167.22 499.89 167.31 500.49 167.32 500.61C179.56 505.24 192.81 507.8 206.67 507.8C216.22 507.8 225.5 506.59 234.35 504.32C234.55 503.16 235.52 497.35 237.27 486.9L250.52 476.15L256.03 458.97L228.35 458.86L221.69 446.79L201.19 431.43Z" id="a15Le6T9ZH"></path><path d="M97.61 414.33C102.58 409.37 106.72 408.53 110.86 401.08C115.01 393.63 110.04 393.63 110.86 381.2C111.69 368.78 110.04 374.58 110.86 361.32C111.16 356.56 110.66 353.94 104.87 352.06C98.88 365.72 95.53 380.8 95.53 396.66C95.53 402.72 96.03 408.67 96.97 414.47C97.5 414.42 97.57 414.38 97.61 414.33Z" id="a390jZpvuF"></path><path d="M187.51 477.14C183.99 470.75 176.33 459.89 176.01 461.81C175.79 463.11 141.09 451.3 117.26 442.89C117.09 443.12 116.23 444.27 114.69 446.34C117.16 457.34 118.53 463.45 118.8 464.67C119.97 466.19 121.19 467.67 122.44 469.12C123.87 469.79 131.03 473.13 143.93 479.15L158.43 481.11L167.06 498.82C167.22 499.89 167.31 500.49 167.32 500.61C179.56 505.24 192.81 507.8 206.67 507.8C216.22 507.8 225.5 506.59 234.35 504.32C234.57 503 236.34 492.43 236.56 491.11C234.61 490.5 232.36 489.7 229.66 488.63C219.12 484.48 214.65 488.95 210.5 488.63C206.35 488.32 191.02 483.53 187.51 477.14Z" id="i9htcNOvP"></path><path d="M256.03 458.97L228.35 458.86L221.68 446.79L201.19 431.43L187.45 431.98L173.2 427.49L162.04 419.8L136.74 425.65L126.3 430.7C120.88 438.01 117.86 442.07 117.26 442.88C141.09 451.3 175.79 463.11 176.01 461.81C176.33 459.89 183.99 470.75 187.51 477.14C191.02 483.53 206.35 488.32 210.5 488.63C214.65 488.95 219.12 484.48 229.66 488.63C232.36 489.7 234.61 490.5 236.56 491.11C236.61 490.83 236.84 489.43 237.27 486.9L250.52 476.15L256.03 458.97Z" id="anczcmCiq"></path><path d="M247.24 317.94C245.1 320.08 227.97 337.21 225.83 339.35C225.83 339.35 245.9 368.13 247.24 371.47C248.58 374.82 265.31 378.83 268.66 376.83C272 374.82 284.72 364.11 290.07 371.47C293.8 376.6 293.32 381.07 295.61 384.21C297.19 384.24 299.16 385.3 301.62 387.78C305.1 388.82 309.07 389.84 312.6 390.7C313.77 383.84 312.9 371.6 313.75 366.92C304.51 333.62 280.14 306.67 248.53 293.78C247.79 307.8 247.5 313.11 247.24 317.94Z" id="a3oPh1Goma"></path><path d="M260.32 323.85C258.79 325.38 246.52 337.64 244.99 339.18C244.99 339.18 259.36 359.78 260.32 362.17C261.28 364.57 273.25 367.44 275.65 366C278.04 364.57 287.14 356.9 290.98 362.17C294.81 367.44 292.41 371.75 298.64 373.67C303.9 375.29 311.16 376.89 313.3 377.35C313.33 373.09 313.34 369.15 313.74 366.92C305.83 338.36 286.77 314.48 261.58 300.11C260.89 313.35 260.57 319.1 260.32 323.85Z" id="dbYalaLIb"></path><path d="M428.94 285.53C367.56 285.53 317.8 335.28 317.8 396.66C317.8 458.04 367.56 507.8 428.94 507.8C490.31 507.8 540.07 458.04 540.07 396.66C540.07 335.28 490.31 285.53 428.94 285.53Z" id="a5xoJBwM"></path><path d="M385.43 294.37C384.82 298.01 381.78 304.22 381.87 306.2C382.3 306.29 410.13 277.84 406.67 297.04C404.45 309.4 381.7 309.33 382.68 321.77C406.58 331.14 414.91 303.98 435.21 304.09C441.98 304.13 459.33 293.42 462.63 295.61C476.03 304.43 459.57 335.72 449.32 325.3C439.46 315.45 425.4 328.76 426.03 344.13C431.16 344.36 433.34 329.58 437.95 334.51C443.02 339.94 441.19 350.87 434.17 353.38C427.1 355.91 399.39 334.64 406.2 350.76C413.68 368.65 383.76 382.47 413.97 375.26C428.21 371.85 423.48 382.69 430.19 387.85C438.19 394 434.65 379.37 440.49 381.6C448.97 384.88 439.03 393.34 452.32 387.2C467.91 380.09 462.05 391.18 466.83 398.43C475.78 411.96 497.78 424.95 509.31 407.07C512.03 402.85 510.29 369.48 527.4 391.86C538.27 406.08 534.54 375.07 536.01 366.92C523.01 319.99 480.01 285.53 428.94 285.53C413.49 285.53 398.79 288.68 385.43 294.37Z" id="a7mhPXdNq"></path><path d="M423.46 431.43L409.72 431.98L395.47 427.49L384.31 419.8L359.01 425.65L348.57 430.7L336.96 446.34C339.43 457.34 340.8 463.45 341.07 464.67C342.24 466.19 343.46 467.67 344.71 469.12C346.14 469.79 353.3 473.13 366.2 479.15L380.7 481.11L389.33 498.82C389.49 499.89 389.58 500.49 389.59 500.61C401.83 505.24 415.08 507.8 428.94 507.8C438.49 507.8 447.77 506.59 456.62 504.32C456.81 503.16 457.79 497.35 459.54 486.9L472.79 476.15L478.3 458.97L450.62 458.86L443.95 446.79L423.46 431.43Z" id="jvDa40JtI"></path><path d="M319.88 414.33C324.85 409.37 328.99 408.53 333.13 401.08C337.28 393.63 332.31 393.63 333.13 381.2C333.96 368.78 332.31 374.58 333.13 361.32C333.43 356.56 332.93 353.94 327.14 352.06C321.15 365.72 317.8 380.8 317.8 396.66C317.8 402.72 318.3 408.67 319.24 414.47C319.77 414.42 319.84 414.38 319.88 414.33Z" id="boSYs3j3p"></path><path d="M409.78 477.14C406.26 470.75 398.6 459.89 398.28 461.81C398.06 463.11 363.36 451.3 339.53 442.89C339.36 443.12 338.5 444.27 336.96 446.34C339.43 457.34 340.8 463.45 341.07 464.67C342.24 466.19 343.46 467.67 344.71 469.12C346.14 469.79 353.3 473.13 366.2 479.15L380.7 481.11L389.33 498.82C389.49 499.89 389.58 500.49 389.59 500.61C401.83 505.24 415.08 507.8 428.94 507.8C438.49 507.8 447.77 506.59 456.62 504.32C456.84 503 458.61 492.43 458.83 491.11C456.88 490.5 454.63 489.7 451.93 488.63C441.39 484.48 436.92 488.95 432.77 488.63C428.62 488.32 413.29 483.53 409.78 477.14Z" id="bNfywUAEo"></path><path d="M478.3 458.97L450.62 458.86L443.95 446.79L423.46 431.43L409.72 431.98L395.47 427.49L384.31 419.8L359.01 425.65L348.57 430.7C343.15 438.01 340.13 442.07 339.53 442.88C363.36 451.3 398.06 463.11 398.28 461.81C398.6 459.89 406.26 470.75 409.78 477.14C413.29 483.53 428.62 488.32 432.77 488.63C436.92 488.95 441.39 484.48 451.93 488.63C454.63 489.7 456.88 490.5 458.83 491.11C458.88 490.83 459.11 489.43 459.54 486.9L472.79 476.15L478.3 458.97Z" id="d2WPtRZlUF"></path><path d="M469.51 317.94C467.37 320.08 450.24 337.21 448.1 339.35C448.1 339.35 468.17 368.13 469.51 371.47C470.85 374.82 487.58 378.83 490.93 376.83C494.27 374.82 506.99 364.11 512.34 371.47C516.07 376.6 515.59 381.07 517.88 384.21C519.46 384.24 521.43 385.3 523.89 387.78C527.37 388.82 531.34 389.84 534.87 390.7C536.04 383.84 535.17 371.6 536.02 366.92C526.78 333.62 502.41 306.67 470.8 293.78C470.06 307.8 469.77 313.11 469.51 317.94Z" id="b717yom2iq"></path><path d="M482.59 323.85C481.05 325.38 468.79 337.64 467.26 339.18C467.26 339.18 481.63 359.78 482.59 362.17C483.55 364.57 495.52 367.44 497.92 366C500.31 364.57 509.41 356.9 513.25 362.17C517.08 367.44 514.68 371.75 520.91 373.67C526.17 375.29 533.43 376.89 535.57 377.35C535.6 373.09 535.61 369.15 536.01 366.92C528.1 338.36 509.04 314.48 483.85 300.11C483.15 313.35 482.84 319.1 482.59 323.85Z" id="b8uCUIBP7"></path><path d="M317.8 93.26C256.42 93.26 206.67 143.01 206.67 204.39C206.67 265.77 256.42 315.53 317.8 315.53C379.18 315.53 428.94 265.77 428.94 204.39C428.94 143.01 379.18 93.26 317.8 93.26Z" id="giGqY2fbQ"></path><path d="M274.29 102.1C273.68 105.74 270.65 111.95 270.74 113.93C271.17 114.02 298.99 85.57 295.54 104.77C293.31 117.13 270.57 117.06 271.55 129.5C295.44 138.87 303.78 111.71 324.08 111.82C330.85 111.86 348.19 101.16 351.5 103.34C364.9 112.16 348.44 143.45 338.19 133.04C328.33 123.18 314.26 136.49 314.9 151.86C320.02 152.09 322.21 137.31 326.81 142.24C331.89 147.67 330.06 158.6 323.04 161.11C315.97 163.64 288.25 142.37 295.06 158.49C302.55 176.38 272.63 190.2 302.83 182.99C317.07 179.58 312.34 190.42 319.06 195.59C327.06 201.73 323.52 187.1 329.35 189.33C337.84 192.61 327.89 201.07 341.19 194.93C356.78 187.82 350.92 198.91 355.69 206.16C364.65 219.69 386.65 232.69 398.18 214.8C400.9 210.58 399.15 177.21 416.27 199.59C427.14 213.81 423.41 182.8 424.88 174.65C411.87 127.72 368.87 93.26 317.8 93.26C302.36 93.26 287.66 96.41 274.29 102.1Z" id="a7SyjU0dz"></path><path d="M312.33 239.17L298.59 239.71L284.33 235.22L273.18 227.53L247.87 233.38L237.44 238.43L225.83 254.07C228.29 265.07 229.66 271.18 229.94 272.4C231.11 273.92 232.32 275.4 233.57 276.85C235.01 277.52 242.17 280.86 255.06 286.88L269.57 288.84L278.2 306.56C278.36 307.62 278.44 308.22 278.46 308.34C290.69 312.97 303.95 315.53 317.8 315.53C327.36 315.53 336.63 314.32 345.49 312.05C345.68 310.89 346.65 305.08 348.4 294.63L361.66 283.88L367.16 266.7L339.49 266.59L332.82 254.52L312.33 239.17Z" id="afM5KjARw"></path><path d="M208.75 222.06C213.72 217.1 217.86 216.26 222 208.81C226.14 201.36 221.17 201.36 222 188.93C222.83 176.51 221.17 182.31 222 169.05C222.3 164.29 221.8 161.67 216 159.79C210.01 173.45 206.67 188.53 206.67 204.39C206.67 210.45 207.17 216.4 208.1 222.2C208.63 222.15 208.7 222.11 208.75 222.06Z" id="bkE3zbUCV"></path><path d="M298.64 284.87C295.13 278.48 287.46 267.62 287.14 269.54C286.93 270.84 252.23 259.03 228.39 250.62C228.22 250.85 227.37 252 225.83 254.07C228.29 265.07 229.66 271.18 229.94 272.4C231.11 273.92 232.32 275.4 233.57 276.85C235.01 277.52 242.17 280.86 255.06 286.88L269.57 288.84L278.2 306.56C278.36 307.62 278.44 308.22 278.46 308.34C290.69 312.97 303.95 315.53 317.8 315.53C327.36 315.53 336.63 314.32 345.49 312.05C345.71 310.73 347.48 300.16 347.7 298.84C345.75 298.24 343.5 297.43 340.79 296.37C330.26 292.21 325.78 296.68 321.63 296.37C317.48 296.05 302.15 291.26 298.64 284.87Z" id="bXeREbU3p"></path><path d="M367.16 266.7L339.49 266.59L332.82 254.52L312.32 239.17L298.58 239.71L284.33 235.22L273.18 227.53L247.87 233.38L237.44 238.43C232.01 245.74 228.99 249.8 228.39 250.61C252.23 259.03 286.93 270.84 287.14 269.54C287.46 267.62 295.13 278.48 298.64 284.87C302.15 291.26 317.48 296.05 321.63 296.37C325.78 296.68 330.26 292.21 340.79 296.37C343.5 297.43 345.75 298.24 347.7 298.84C347.74 298.56 347.98 297.16 348.4 294.63L361.66 283.88L367.16 266.7Z" id="a2euICUJ2J"></path><path d="M358.38 125.67C356.24 127.81 339.1 144.94 336.96 147.08C336.96 147.08 357.04 175.86 358.38 179.2C359.71 182.55 376.44 186.56 379.79 184.56C383.14 182.55 395.85 171.84 401.21 179.2C404.93 184.33 404.45 188.8 406.74 191.94C408.32 191.97 410.3 193.03 412.76 195.51C416.24 196.55 420.2 197.57 423.74 198.43C424.91 191.57 424.04 179.33 424.88 174.65C415.65 141.35 391.27 114.4 359.67 101.51C358.93 115.53 358.64 120.84 358.38 125.67Z" id="d1noJrxxWj"></path><path d="M371.45 131.58C369.92 133.11 357.66 145.38 356.12 146.91C356.12 146.91 370.49 167.51 371.45 169.9C372.41 172.3 384.39 175.17 386.78 173.73C389.18 172.3 398.28 164.63 402.11 169.9C405.94 175.17 403.55 179.48 409.78 181.4C415.04 183.02 422.29 184.62 424.43 185.08C424.46 180.82 424.48 176.88 424.88 174.65C416.96 146.09 397.91 122.21 372.72 107.84C372.02 121.08 371.71 126.83 371.45 131.58Z" id="h1PE55G6Qi"></path></defs><g><g><use xlink:href="#a3RZtbHaMC" opacity="1" fill="#5a8028" fill-opacity="1"></use><g><use xlink:href="#a3RZtbHaMC" opacity="1" fill-opacity="0" stroke="#000000" stroke-width="1" stroke-opacity="0"></use></g></g><g><use xlink:href="#a8ueINeiB" opacity="1" fill="#24ae5f" fill-opacity="1"></use><g><use xlink:href="#a8ueINeiB" opacity="1" fill-opacity="0" stroke="#000000" stroke-width="1" stroke-opacity="0"></use></g></g><g><use xlink:href="#a15Le6T9ZH" opacity="1" fill="#fac176" fill-opacity="1"></use><g><use xlink:href="#a15Le6T9ZH" opacity="1" fill-opacity="0" stroke="#000000" stroke-width="1" stroke-opacity="0"></use></g></g><g><use xlink:href="#a390jZpvuF" opacity="1" fill="#88c057" fill-opacity="1"></use><g><use xlink:href="#a390jZpvuF" opacity="1" fill-opacity="0" stroke="#000000" stroke-width="1" stroke-opacity="0"></use></g></g><g><use xlink:href="#i9htcNOvP" opacity="1" fill="#fac176" fill-opacity="1"></use><g><use xlink:href="#i9htcNOvP" opacity="1" fill-opacity="0" stroke="#000000" stroke-width="1" stroke-opacity="0"></use></g></g><g><use xlink:href="#anczcmCiq" opacity="1" fill="#88c057" fill-opacity="1"></use><g><use xlink:href="#anczcmCiq" opacity="1" fill-opacity="0" stroke="#000000" stroke-width="1" stroke-opacity="0"></use></g></g><g><use xlink:href="#a3oPh1Goma" opacity="1" fill="#88c057" fill-opacity="1"></use><g><use xlink:href="#a3oPh1Goma" opacity="1" fill-opacity="0" stroke="#000000" stroke-width="1" stroke-opacity="0"></use></g></g><g><use xlink:href="#dbYalaLIb" opacity="1" fill="#fac176" fill-opacity="1"></use><g><use xlink:href="#dbYalaLIb" opacity="1" fill-opacity="0" stroke="#000000" stroke-width="1" stroke-opacity="0"></use></g></g><g><use xlink:href="#a5xoJBwM" opacity="1" fill="#803a28" fill-opacity="1"></use><g><use xlink:href="#a5xoJBwM" opacity="1" fill-opacity="0" stroke="#000000" stroke-width="1" stroke-opacity="0"></use></g></g><g><use xlink:href="#a7mhPXdNq" opacity="1" fill="#24ae5f" fill-opacity="1"></use><g><use xlink:href="#a7mhPXdNq" opacity="1" fill-opacity="0" stroke="#000000" stroke-width="1" stroke-opacity="0"></use></g></g><g><use xlink:href="#jvDa40JtI" opacity="1" fill="#fac176" fill-opacity="1"></use><g><use xlink:href="#jvDa40JtI" opacity="1" fill-opacity="0" stroke="#000000" stroke-width="1" stroke-opacity="0"></use></g></g><g><use xlink:href="#boSYs3j3p" opacity="1" fill="#88c057" fill-opacity="1"></use><g><use xlink:href="#boSYs3j3p" opacity="1" fill-opacity="0" stroke="#000000" stroke-width="1" stroke-opacity="0"></use></g></g><g><use xlink:href="#bNfywUAEo" opacity="1" fill="#fac176" fill-opacity="1"></use><g><use xlink:href="#bNfywUAEo" opacity="1" fill-opacity="0" stroke="#000000" stroke-width="1" stroke-opacity="0"></use></g></g><g><use xlink:href="#d2WPtRZlUF" opacity="1" fill="#88c057" fill-opacity="1"></use><g><use xlink:href="#d2WPtRZlUF" opacity="1" fill-opacity="0" stroke="#000000" stroke-width="1" stroke-opacity="0"></use></g></g><g><use xlink:href="#b717yom2iq" opacity="1" fill="#88c057" fill-opacity="1"></use><g><use xlink:href="#b717yom2iq" opacity="1" fill-opacity="0" stroke="#000000" stroke-width="1" stroke-opacity="0"></use></g></g><g><use xlink:href="#b8uCUIBP7" opacity="1" fill="#fac176" fill-opacity="1"></use><g><use xlink:href="#b8uCUIBP7" opacity="1" fill-opacity="0" stroke="#000000" stroke-width="1" stroke-opacity="0"></use></g></g><g><use xlink:href="#giGqY2fbQ" opacity="1" fill="#285680" fill-opacity="1"></use><g><use xlink:href="#giGqY2fbQ" opacity="1" fill-opacity="0" stroke="#000000" stroke-width="1" stroke-opacity="0"></use></g></g><g><use xlink:href="#a7SyjU0dz" opacity="1" fill="#24ae5f" fill-opacity="1"></use><g><use xlink:href="#a7SyjU0dz" opacity="1" fill-opacity="0" stroke="#000000" stroke-width="1" stroke-opacity="0"></use></g></g><g><use xlink:href="#afM5KjARw" opacity="1" fill="#fac176" fill-opacity="1"></use><g><use xlink:href="#afM5KjARw" opacity="1" fill-opacity="0" stroke="#000000" stroke-width="1" stroke-opacity="0"></use></g></g><g><use xlink:href="#bkE3zbUCV" opacity="1" fill="#88c057" fill-opacity="1"></use><g><use xlink:href="#bkE3zbUCV" opacity="1" fill-opacity="0" stroke="#000000" stroke-width="1" stroke-opacity="0"></use></g></g><g><use xlink:href="#bXeREbU3p" opacity="1" fill="#fac176" fill-opacity="1"></use><g><use xlink:href="#bXeREbU3p" opacity="1" fill-opacity="0" stroke="#000000" stroke-width="1" stroke-opacity="0"></use></g></g><g><use xlink:href="#a2euICUJ2J" opacity="1" fill="#88c057" fill-opacity="1"></use><g><use xlink:href="#a2euICUJ2J" opacity="1" fill-opacity="0" stroke="#000000" stroke-width="1" stroke-opacity="0"></use></g></g><g><use xlink:href="#d1noJrxxWj" opacity="1" fill="#88c057" fill-opacity="1"></use><g><use xlink:href="#d1noJrxxWj" opacity="1" fill-opacity="0" stroke="#000000" stroke-width="1" stroke-opacity="0"></use></g></g><g><use xlink:href="#h1PE55G6Qi" opacity="1" fill="#fac176" fill-opacity="1"></use><g><use xlink:href="#h1PE55G6Qi" opacity="1" fill-opacity="0" stroke="#000000" stroke-width="1" stroke-opacity="0"></use></g></g></g></svg>